<svg data-v-fde0c5aa="" xmlns="http://www.w3.org/2000/svg" viewBox="0 0 300 300" class="iconLeft"><!----><defs data-v-fde0c5aa=""><!----></defs><rect data-v-fde0c5aa="" fill="transparent" x="0" y="0" width="300px" height="300px" class="logo-background-square"></rect><defs data-v-fde0c5aa=""><!----></defs><g data-v-fde0c5aa="" id="3d773b28-6355-4289-91f6-69e7e03acf15" fill="#000000" transform="matrix(1.5815410620042527,0,0,1.5815410620042527,74.67501975703749,135.48936120859352)"><path d="M7.62 6.15L3.72 6.15L3.72 8.20L6.86 8.20L6.86 10.16L3.72 10.16L3.72 12.05L7.62 12.05L7.62 14L1.22 14L1.22 4.20L7.62 4.20L7.62 6.15ZM16.44 12.60L16.44 12.60Q15.95 13.44 15.16 13.80L15.16 13.80L15.16 13.80Q14.36 14.15 13.12 14.15L13.12 14.15L13.12 14.15Q11.49 14.15 10.46 13.27L10.46 13.27L10.46 13.27Q9.42 12.38 9.42 10.49L9.42 10.49L9.42 10.49Q9.42 8.58 10.45 7.71L10.45 7.71L10.45 7.71Q11.48 6.83 13.12 6.83L13.12 6.83L13.12 6.83Q14.38 6.83 15.20 7.20L15.20 7.20L15.20 7.20Q16.02 7.57 16.51 8.48L16.51 8.48L14.31 9.72L14.31 9.72Q14.20 9.28 13.88 9.04L13.88 9.04L13.88 9.04Q13.57 8.79 13.08 8.79L13.08 8.79L13.08 8.79Q12.68 8.79 12.45 8.93L12.45 8.93L12.45 8.93Q12.22 9.07 12.11 9.44L12.11 9.44L12.11 9.44Q12.00 9.80 12.00 10.49L12.00 10.49L12.00 10.49Q12.00 11.48 12.25 11.84L12.25 11.84L12.25 11.84Q12.50 12.19 13.08 12.19L13.08 12.19L13.08 12.19Q13.54 12.19 13.80 12.00L13.80 12.00L13.80 12.00Q14.06 11.80 14.21 11.47L14.21 11.47L16.44 12.60ZM21.04 14.15L21.04 14.15Q20.06 14.15 19.21 13.78L19.21 13.78L19.21 13.78Q18.35 13.41 17.82 12.59L17.82 12.59L17.82 12.59Q17.29 11.76 17.29 10.49L17.29 10.49L17.29 10.49Q17.29 9.21 17.82 8.39L17.82 8.39L17.82 8.39Q18.35 7.57 19.21 7.20L19.21 7.20L19.21 7.20Q20.06 6.83 21.04 6.83L21.04 6.83L21.04 6.83Q22.02 6.83 22.87 7.20L22.87 7.20L22.87 7.20Q23.72 7.57 24.25 8.39L24.25 8.39L24.25 8.39Q24.78 9.21 24.78 10.49L24.78 10.49L24.78 10.49Q24.78 11.76 24.25 12.59L24.25 12.59L24.25 12.59Q23.72 13.41 22.87 13.78L22.87 13.78L22.87 13.78Q22.02 14.15 21.04 14.15L21.04 14.15ZM21.04 12.19L21.04 12.19Q21.46 12.19 21.83 11.88L21.83 11.88L21.83 11.88Q22.20 11.56 22.20 10.49L22.20 10.49L22.20 10.49Q22.20 9.42 21.83 9.11L21.83 9.11L21.83 9.11Q21.46 8.79 21.04 8.79L21.04 8.79L21.04 8.79Q19.87 8.79 19.87 10.49L19.87 10.49L19.87 10.49Q19.87 12.19 21.04 12.19L21.04 12.19ZM31.70 6.85L31.70 6.85Q32.55 6.85 33.08 7.40L33.08 7.40L33.08 7.40Q33.61 7.95 33.61 9.49L33.61 9.49L33.61 14L31.30 14L31.30 9.41L31.30 9.41Q31.30 9.07 31.24 8.94L31.24 8.94L31.24 8.94Q31.18 8.81 31.04 8.81L31.04 8.81L31.04 8.81Q30.91 8.81 30.72 8.90L30.72 8.90L30.72 8.90Q30.53 8.99 30.38 9.13L30.38 9.13L30.38 14L28.42 14L28.42 9.41L28.42 9.41Q28.42 9.09 28.31 8.95L28.31 8.95L28.31 8.95Q28.20 8.81 28.04 8.81L28.04 8.81L28.04 8.81Q27.93 8.81 27.78 8.89L27.78 8.89L27.78 8.89Q27.64 8.97 27.51 9.11L27.51 9.11L27.51 14L25.17 14L25.17 9.17L25.17 7L26.73 7L27.15 7.73L27.15 7.73Q27.43 7.31 27.80 7.08L27.80 7.08L27.80 7.08Q28.17 6.85 28.57 6.85L28.57 6.85L28.57 6.85Q29.09 6.85 29.51 7.10L29.51 7.10L29.51 7.10Q29.93 7.35 30.11 7.83L30.11 7.83L30.11 7.83Q30.42 7.38 30.86 7.11L30.86 7.11L30.86 7.11Q31.29 6.85 31.70 6.85L31.70 6.85ZM40.10 6.85L40.10 6.85Q40.95 6.85 41.48 7.40L41.48 7.40L41.48 7.40Q42.01 7.95 42.01 9.49L42.01 9.49L42.01 14L39.70 14L39.70 9.41L39.70 9.41Q39.70 9.07 39.64 8.94L39.64 8.94L39.64 8.94Q39.58 8.81 39.44 8.81L39.44 8.81L39.44 8.81Q39.31 8.81 39.12 8.90L39.12 8.90L39.12 8.90Q38.93 8.99 38.78 9.13L38.78 9.13L38.78 14L36.82 14L36.82 9.41L36.82 9.41Q36.82 9.09 36.71 8.95L36.71 8.95L36.71 8.95Q36.60 8.81 36.44 8.81L36.44 8.81L36.44 8.81Q36.33 8.81 36.18 8.89L36.18 8.89L36.18 8.89Q36.04 8.97 35.91 9.11L35.91 9.11L35.91 14L33.57 14L33.57 9.17L33.57 7L35.13 7L35.55 7.73L35.55 7.73Q35.83 7.31 36.20 7.08L36.20 7.08L36.20 7.08Q36.57 6.85 36.97 6.85L36.97 6.85L36.97 6.85Q37.49 6.85 37.91 7.10L37.91 7.10L37.91 7.10Q38.33 7.35 38.51 7.83L38.51 7.83L38.51 7.83Q38.82 7.38 39.26 7.11L39.26 7.11L39.26 7.11Q39.69 6.85 40.10 6.85L40.10 6.85ZM46.42 6.83L46.42 6.83Q48.10 6.83 48.97 7.85L48.97 7.85L48.97 7.85Q49.83 8.88 49.83 10.82L49.83 10.82L49.83 10.82Q49.83 11.12 49.81 11.27L49.81 11.27L45.33 11.27L45.33 11.27Q45.40 11.73 45.65 11.96L45.65 11.96L45.65 11.96Q45.91 12.19 46.44 12.19L46.44 12.19L46.44 12.19Q46.91 12.19 47.17 12.07L47.17 12.07L47.17 12.07Q47.42 11.94 47.63 11.62L47.63 11.62L49.57 12.70L49.57 12.70Q49.18 13.34 48.32 13.75L48.32 13.75L48.32 13.75Q47.46 14.15 46.38 14.15L46.38 14.15L46.38 14.15Q44.67 14.15 43.79 13.15L43.79 13.15L43.79 13.15Q42.91 12.14 42.91 10.49L42.91 10.49L42.91 10.49Q42.91 9.42 43.32 8.60L43.32 8.60L43.32 8.60Q43.72 7.77 44.51 7.30L44.51 7.30L44.51 7.30Q45.30 6.83 46.42 6.83L46.42 6.83ZM45.36 9.81L47.64 9.81L47.64 9.81Q47.67 9.38 47.37 9.06L47.37 9.06L47.37 9.06Q47.07 8.75 46.52 8.75L46.52 8.75L46.52 8.75Q46.03 8.75 45.74 9.01L45.74 9.01L45.74 9.01Q45.46 9.27 45.36 9.81L45.36 9.81ZM57.25 6.83L57.25 6.83Q57.93 6.83 58.20 6.93L58.20 6.93L58.20 6.93Q58.48 7.03 58.63 7.17L58.63 7.17L57.99 9.16L57.99 9.16Q57.95 9.07 57.63 8.95L57.63 8.95L57.63 8.95Q57.32 8.83 56.97 8.83L56.97 8.83L56.97 8.83Q56.46 8.83 56.13 8.88L56.13 8.88L56.13 8.88Q55.79 8.93 55.59 9.09L55.59 9.09L55.59 12.05L57.41 12.05L57.41 14L51.84 14L51.84 12.05L53.09 12.05L53.09 8.95L51.84 8.95L51.84 7L54.71 7L55.13 7.66L55.13 7.66Q55.51 7.27 56.05 7.05L56.05 7.05L56.05 7.05Q56.59 6.83 57.25 6.83L57.25 6.83ZM66.84 12.60L66.84 12.60Q66.35 13.44 65.55 13.80L65.55 13.80L65.55 13.80Q64.76 14.15 63.52 14.15L63.52 14.15L63.52 14.15Q61.89 14.15 60.86 13.27L60.86 13.27L60.86 13.27Q59.82 12.38 59.82 10.49L59.82 10.49L59.82 10.49Q59.82 8.58 60.85 7.71L60.85 7.71L60.85 7.71Q61.88 6.83 63.52 6.83L63.52 6.83L63.52 6.83Q64.78 6.83 65.60 7.20L65.60 7.20L65.60 7.20Q66.42 7.57 66.91 8.48L66.91 8.48L64.71 9.72L64.71 9.72Q64.60 9.28 64.28 9.04L64.28 9.04L64.28 9.04Q63.97 8.79 63.48 8.79L63.48 8.79L63.48 8.79Q63.08 8.79 62.85 8.93L62.85 8.93L62.85 8.93Q62.62 9.07 62.51 9.44L62.51 9.44L62.51 9.44Q62.40 9.80 62.40 10.49L62.40 10.49L62.40 10.49Q62.40 11.48 62.65 11.84L62.65 11.84L62.65 11.84Q62.90 12.19 63.48 12.19L63.48 12.19L63.48 12.19Q63.94 12.19 64.20 12.00L64.20 12.00L64.20 12.00Q64.46 11.80 64.61 11.47L64.61 11.47L66.84 12.60ZM71.62 6.83L71.62 6.83Q73.30 6.83 74.17 7.85L74.17 7.85L74.17 7.85Q75.03 8.88 75.03 10.82L75.03 10.82L75.03 10.82Q75.03 11.12 75.01 11.27L75.01 11.27L70.53 11.27L70.53 11.27Q70.60 11.73 70.85 11.96L70.85 11.96L70.85 11.96Q71.11 12.19 71.64 12.19L71.64 12.19L71.64 12.19Q72.11 12.19 72.37 12.07L72.37 12.07L72.37 12.07Q72.62 11.94 72.83 11.62L72.83 11.62L74.77 12.70L74.77 12.70Q74.38 13.34 73.52 13.75L73.52 13.75L73.52 13.75Q72.66 14.15 71.58 14.15L71.58 14.15L71.58 14.15Q69.87 14.15 68.99 13.15L68.99 13.15L68.99 13.15Q68.11 12.14 68.11 10.49L68.11 10.49L68.11 10.49Q68.11 9.42 68.52 8.60L68.52 8.60L68.52 8.60Q68.92 7.77 69.71 7.30L69.71 7.30L69.71 7.30Q70.50 6.83 71.62 6.83L71.62 6.83ZM70.56 9.81L72.84 9.81L72.84 9.81Q72.87 9.38 72.57 9.06L72.57 9.06L72.57 9.06Q72.27 8.75 71.72 8.75L71.72 8.75L71.72 8.75Q71.23 8.75 70.95 9.01L70.95 9.01L70.95 9.01Q70.66 9.27 70.56 9.81L70.56 9.81ZM88.35 4.20L88.35 4.20Q89.45 4.20 90.25 4.45L90.25 4.45L90.25 4.45Q91.06 4.70 91.68 5.78L91.68 5.78L91.68 5.78Q92.30 6.85 92.30 9.10L92.30 9.10L92.30 9.10Q92.30 11.35 91.68 12.43L91.68 12.43L91.68 12.43Q91.06 13.50 90.25 13.75L90.25 13.75L90.25 13.75Q89.45 14 88.35 14L88.35 14L85.15 14L85.15 4.20L88.35 4.20ZM87.95 12.05L87.95 12.05Q88.73 12.05 89.11 11.78L89.11 11.78L89.11 11.78Q89.49 11.51 89.61 10.91L89.61 10.91L89.61 10.91Q89.74 10.30 89.74 9.10L89.74 9.10L89.74 9.10Q89.74 7.90 89.61 7.29L89.61 7.29L89.61 7.29Q89.49 6.69 89.11 6.42L89.11 6.42L89.11 6.42Q88.73 6.15 87.95 6.15L87.95 6.15L87.64 6.15L87.64 12.05L87.95 12.05ZM96.82 6.83L96.82 6.83Q98.50 6.83 99.37 7.85L99.37 7.85L99.37 7.85Q100.23 8.88 100.23 10.82L100.23 10.82L100.23 10.82Q100.23 11.12 100.21 11.27L100.21 11.27L95.73 11.27L95.73 11.27Q95.80 11.73 96.05 11.96L96.05 11.96L96.05 11.96Q96.31 12.19 96.84 12.19L96.84 12.19L96.84 12.19Q97.31 12.19 97.57 12.07L97.57 12.07L97.57 12.07Q97.82 11.94 98.03 11.62L98.03 11.62L99.97 12.70L99.97 12.70Q99.58 13.34 98.72 13.75L98.72 13.75L98.72 13.75Q97.86 14.15 96.78 14.15L96.78 14.15L96.78 14.15Q95.07 14.15 94.19 13.15L94.19 13.15L94.19 13.15Q93.31 12.14 93.31 10.49L93.31 10.49L93.31 10.49Q93.31 9.42 93.72 8.60L93.72 8.60L93.72 8.60Q94.12 7.77 94.91 7.30L94.91 7.30L94.91 7.30Q95.70 6.83 96.82 6.83L96.82 6.83ZM95.76 9.81L98.04 9.81L98.04 9.81Q98.07 9.38 97.77 9.06L97.77 9.06L97.77 9.06Q97.47 8.75 96.92 8.75L96.92 8.75L96.92 8.75Q96.43 8.75 96.15 9.01L96.15 9.01L96.15 9.01Q95.86 9.27 95.76 9.81L95.76 9.81ZM107.30 6.85L107.30 6.85Q108.15 6.85 108.68 7.40L108.68 7.40L108.68 7.40Q109.21 7.95 109.21 9.49L109.21 9.49L109.21 14L106.90 14L106.90 9.41L106.90 9.41Q106.90 9.07 106.84 8.94L106.84 8.94L106.84 8.94Q106.78 8.81 106.64 8.81L106.64 8.81L106.64 8.81Q106.51 8.81 106.32 8.90L106.32 8.90L106.32 8.90Q106.13 8.99 105.98 9.13L105.98 9.13L105.98 14L104.02 14L104.02 9.41L104.02 9.41Q104.02 9.09 103.91 8.95L103.91 8.95L103.91 8.95Q103.80 8.81 103.64 8.81L103.64 8.81L103.64 8.81Q103.53 8.81 103.38 8.89L103.38 8.89L103.38 8.89Q103.24 8.97 103.11 9.11L103.11 9.11L103.11 14L100.77 14L100.77 9.17L100.77 7L102.33 7L102.75 7.73L102.75 7.73Q103.03 7.31 103.40 7.08L103.40 7.08L103.40 7.08Q103.77 6.85 104.17 6.85L104.17 6.85L104.17 6.85Q104.69 6.85 105.11 7.10L105.11 7.10L105.11 7.10Q105.53 7.35 105.71 7.83L105.71 7.83L105.71 7.83Q106.02 7.38 106.46 7.11L106.46 7.11L106.46 7.11Q106.89 6.85 107.30 6.85L107.30 6.85ZM113.44 14.15L113.44 14.15Q112.46 14.15 111.61 13.78L111.61 13.78L111.61 13.78Q110.75 13.41 110.22 12.59L110.22 12.59L110.22 12.59Q109.69 11.76 109.69 10.49L109.69 10.49L109.69 10.49Q109.69 9.21 110.22 8.39L110.22 8.39L110.22 8.39Q110.75 7.57 111.61 7.20L111.61 7.20L111.61 7.20Q112.46 6.83 113.44 6.83L113.44 6.83L113.44 6.83Q114.42 6.83 115.27 7.20L115.27 7.20L115.27 7.20Q116.12 7.57 116.65 8.39L116.65 8.39L116.65 8.39Q117.18 9.21 117.18 10.49L117.18 10.49L117.18 10.49Q117.18 11.76 116.65 12.59L116.65 12.59L116.65 12.59Q116.12 13.41 115.27 13.78L115.27 13.78L115.27 13.78Q114.42 14.15 113.44 14.15L113.44 14.15ZM113.44 12.19L113.44 12.19Q113.86 12.19 114.23 11.88L114.23 11.88L114.23 11.88Q114.60 11.56 114.60 10.49L114.60 10.49L114.60 10.49Q114.60 9.42 114.23 9.11L114.23 9.11L114.23 9.11Q113.86 8.79 113.44 8.79L113.44 8.79L113.44 8.79Q112.27 8.79 112.27 10.49L112.27 10.49L112.27 10.49Q112.27 12.19 113.44 12.19L113.44 12.19Z"></path></g><defs data-v-fde0c5aa=""><!----></defs><g data-v-fde0c5aa="" id="c586c358-6f74-4e9f-a7fc-b71f8741ce98" stroke="none" fill="#4B279B" transform="matrix(0.737640621810342,0,0,0.737640621810342,40,138.19775005103452)"><path d="M32 0H0v32h32V0zm-8.677 20.802l-2.52 2.52L16 28.125l-2.52-2.52 4.802-4.802L16 18.52l-4.802 4.802-2.52-2.52L13.48 16l-2.282-2.282-4.803 4.802L3.875 16l4.802-4.802 2.52-2.52L16 3.875l2.52 2.52-4.802 4.802L16 13.48l4.802-4.802 2.52 2.52L18.52 16l2.282 2.282 4.802-4.802 2.52 2.52-4.801 4.802z"></path></g><!----></svg>